# xmcd
#
# Track frame offsets: 
#        150
#        20170
#        46687
#        65202
#        82132
#        105562
#        135140
#        154467
#        169620
#        192257
#        207982
#
# Disc length: 3183 seconds
#
# Revision: 3
# Processed by: cddbd v1.5.2PL0 Copyright (c) Steve Scherf et al.
# Submitted via: ExactAudioCopyFreeDBPlugin 1.0
#
DISCID=960c6d0b
DTITLE=Critters Buggin' - Stampede
DYEAR=2004
DGENRE=Jazz
TTITLE0=Hojo
TTITLE1=Panang
TTITLE2=Cloudburst
TTITLE3=Sisa Boto
TTITLE4=Persephone Under Mars
TTITLE5=We are New People
TTITLE6=Toad Garden
TTITLE7=Punk Rock Guilt
TTITLE8=Nasty Gnostic
TTITLE9=Dorothy
TTITLE10=Open The Door Of Peace
EXTD=YEAR: 2004
EXTT0=
EXTT1=
EXTT2=
EXTT3=
EXTT4=
EXTT5=
EXTT6=
EXTT7=
EXTT8=
EXTT9=
EXTT10=
PLAYORDER=
